<?xml version="1.0" encoding="UTF-8" standalone="no"?>
<!DOCTYPE svg PUBLIC "-//W3C//DTD SVG 1.1//EN"
 "http://www.w3.org/Graphics/SVG/1.1/DTD/svg11.dtd">
<!-- Generated by graphviz version 14.1.3 (20260303.0454)
 -->
<!-- Title: G Pages: 1 -->
<svg width="673pt" height="491pt"
 viewBox="0.00 0.00 673.00 491.00" xmlns="http://www.w3.org/2000/svg" xmlns:xlink="http://www.w3.org/1999/xlink">
<g id="graph0" class="graph" transform="scale(1 1) rotate(0) translate(21.6 469.6)">
<title>G</title>
<polygon fill="#fcfbff" stroke="none" points="-21.6,21.6 -21.6,-469.6 651.6,-469.6 651.6,21.6 -21.6,21.6"/>
<!-- caller -->
<g id="node1" class="node">
<title>caller</title>
<polygon fill="#eee4f7" stroke="none" points="125,-403.8 125,-447 484.45,-447 484.45,-403.8 125,-403.8"/>
<text xml:space="preserve" text-anchor="start" x="226.05" y="-421.6" font-family="Arial" font-weight="bold" font-size="16.00">Caller supplies input</text>
<polygon fill="#ffffff" stroke="none" points="125,-348.6 125,-403.8 484.45,-403.8 484.45,-348.6 125,-348.6"/>
<text xml:space="preserve" text-anchor="start" x="137" y="-378.8" font-family="Courier,monospace" font-size="13.00">int main() { &#160;&#160;&#160;std::vector&lt;int&gt; v{10,999};</text>
<text xml:space="preserve" text-anchor="start" x="140.9" y="-363.2" font-family="Courier,monospace" font-size="13.00">// See the full main driver in the source.</text>
<polygon fill="none" stroke="#b9a3d2" points="124,-347.6 124,-448 506,-448 506,-347.6 124,-347.6"/>
</g>
<!-- operation -->
<g id="node2" class="node">
<title>operation</title>
<polygon fill="#eee4f7" stroke="none" points="1,-237.8 1,-281 610.1,-281 610.1,-237.8 1,-237.8"/>
<text xml:space="preserve" text-anchor="start" x="225.53" y="-255.6" font-family="Arial" font-weight="bold" font-size="16.00">Check and transform</text>
<polygon fill="#ffffff" stroke="none" points="1,-167 1,-237.8 610.1,-237.8 610.1,-167 1,-167"/>
<text xml:space="preserve" text-anchor="start" x="13" y="-212.8" font-family="Courier,monospace" font-size="13.00">if (from &gt;= stock.size() || to &gt;= stock.size() || amount &lt; 0) return false;</text>
<text xml:space="preserve" text-anchor="start" x="13" y="-197.2" font-family="Courier,monospace" font-size="13.00">if (amount &gt; stock[from]) return false;</text>
<text xml:space="preserve" text-anchor="start" x="141.72" y="-181.6" font-family="Courier,monospace" font-size="13.00">// Checks and loops enforce this contract.</text>
<polygon fill="none" stroke="#b9a3d2" points="0,-166 0,-282 630,-282 630,-166 0,-166"/>
</g>
<!-- caller&#45;&gt;operation -->
<g id="edge1" class="edge">
<title>caller&#45;&gt;operation</title>
<path fill="none" stroke="#7955ac" stroke-width="1.8" d="M315,-348.03C315,-331.18 315,-311.98 315,-293.83"/>
<polygon fill="#7955ac" stroke="#7955ac" stroke-width="1.8" points="315,-283.98 319.5,-293.98 315.4,-286.79 315.4,-293.98 315,-293.98 314.6,-293.98 314.6,-286.79 310.5,-293.98 315,-283.98"/>
<text xml:space="preserve" text-anchor="middle" x="387.62" y="-310.9" font-family="Arial" font-size="13.00">call with the stated inputs</text>
</g>
<!-- result -->
<g id="node3" class="node">
<title>result</title>
<polygon fill="#eee4f7" stroke="none" points="117,-56.2 117,-99.4 499.86,-99.4 499.86,-56.2 117,-56.2"/>
<text xml:space="preserve" text-anchor="start" x="235.53" y="-74" font-family="Arial" font-weight="bold" font-size="16.00">Return to the caller</text>
<polygon fill="#ffffff" stroke="none" points="117,-1 117,-56.2 499.86,-56.2 499.86,-1 117,-1"/>
<text xml:space="preserve" text-anchor="start" x="129" y="-31.2" font-family="Courier,monospace" font-size="13.00">return true;</text>
<text xml:space="preserve" text-anchor="start" x="129" y="-15.6" font-family="Courier,monospace" font-size="13.00">// Result and state must satisfy the contract.</text>
<polygon fill="none" stroke="#b9a3d2" points="116,0 116,-100.4 514,-100.4 514,0 116,0"/>
</g>
<!-- operation&#45;&gt;result -->
<g id="edge2" class="edge">
<title>operation&#45;&gt;result</title>
<path fill="none" stroke="#7955ac" stroke-width="1.8" d="M315,-166.27C315,-149.04 315,-130.04 315,-112.52"/>
<polygon fill="#7955ac" stroke="#7955ac" stroke-width="1.8" points="315,-102.57 319.5,-112.57 315.4,-105.38 315.4,-112.57 315,-112.57 314.6,-112.57 314.6,-105.38 310.5,-112.57 315,-102.57"/>
<text xml:space="preserve" text-anchor="middle" x="432.06" y="-129.3" font-family="Arial" font-size="13.00">return or reported rejection; see full code</text>
</g>
</g>
</svg>
