<?xml version="1.0" encoding="UTF-8" standalone="no"?>
<!DOCTYPE svg PUBLIC "-//W3C//DTD SVG 1.1//EN"
 "http://www.w3.org/Graphics/SVG/1.1/DTD/svg11.dtd">
<!-- Generated by graphviz version 14.1.3 (20260303.0454)
 -->
<!-- Title: G Pages: 1 -->
<svg width="1117pt" height="227pt"
 viewBox="0.00 0.00 1117.00 227.00" xmlns="http://www.w3.org/2000/svg" xmlns:xlink="http://www.w3.org/1999/xlink">
<g id="graph0" class="graph" transform="scale(1 1) rotate(0) translate(18 209)">
<title>G</title>
<polygon fill="#fcfcff" stroke="none" points="-18,18 -18,-209 1099,-209 1099,18 -18,18"/>
<!-- I -->
<g id="node1" class="node">
<title>I</title>
<polygon fill="#ffffff" stroke="none" points="0,-13.2 0,-85.2 202,-85.2 202,-13.2 0,-13.2"/>
<polygon fill="#eee9fb" stroke="none" points="1,-47.4 1,-84.2 201,-84.2 201,-47.4 1,-47.4"/>
<text xml:space="preserve" text-anchor="middle" x="101" y="-62.6" font-family="Arial,sans-serif" font-weight="bold" font-size="14.00">Concrete State: Idle</text>
<text xml:space="preserve" text-anchor="start" x="11" y="-26.4" font-family="ui-monospace,Consolas,monospace" font-size="11.00">return &quot;idle&quot;;</text>
<polygon fill="none" stroke="#bdb1da" points="0,-13.2 0,-85.2 202,-85.2 202,-13.2 0,-13.2"/>
</g>
<!-- A -->
<g id="node2" class="node">
<title>A</title>
<polygon fill="#ffffff" stroke="none" points="374,-79.4 374,-191 628,-191 628,-79.4 374,-79.4"/>
<polygon fill="#eee9fb" stroke="none" points="375,-153.2 375,-190 627,-190 627,-153.2 375,-153.2"/>
<text xml:space="preserve" text-anchor="middle" x="501" y="-168.4" font-family="Arial,sans-serif" font-weight="bold" font-size="14.00">Concrete State: Active</text>
<text xml:space="preserve" text-anchor="start" x="385" y="-132.2" font-family="ui-monospace,Consolas,monospace" font-size="11.00">if (event == Event::finish) {</text>
<text xml:space="preserve" text-anchor="start" x="385" y="-119" font-family="ui-monospace,Consolas,monospace" font-size="11.00">return std::make_unique&lt;Done&gt;();</text>
<text xml:space="preserve" text-anchor="start" x="385" y="-105.8" font-family="ui-monospace,Consolas,monospace" font-size="11.00">}</text>
<text xml:space="preserve" text-anchor="start" x="408.1" y="-92.6" font-family="ui-monospace,Consolas,monospace" font-size="11.00">// Active accepts finish.</text>
<polygon fill="none" stroke="#bdb1da" points="374,-79.4 374,-191 628,-191 628,-79.4 374,-79.4"/>
</g>
<!-- I&#45;&gt;A -->
<g id="edge1" class="edge">
<title>I&#45;&gt;A</title>
<path fill="none" stroke="#7355df" stroke-width="1.6" d="M201.92,-70.79C250.62,-81.31 309.94,-94.13 362.8,-105.55"/>
<polygon fill="#7355df" stroke="#7355df" stroke-width="1.6" points="372.42,-107.63 361.7,-109.92 369.38,-107.28 362.59,-105.81 362.65,-105.52 362.71,-105.23 369.51,-106.7 363.6,-101.12 372.42,-107.63"/>
<text xml:space="preserve" text-anchor="start" x="250.69" y="-107.1" font-family="Arial,sans-serif" font-size="11.00" fill="#514675">begin accepted</text>
</g>
<!-- D -->
<g id="node3" class="node">
<title>D</title>
<polygon fill="#ffffff" stroke="none" points="806,0 806,-98.4 1081,-98.4 1081,0 806,0"/>
<polygon fill="#eee9fb" stroke="none" points="807,-60.6 807,-97.4 1080,-97.4 1080,-60.6 807,-60.6"/>
<text xml:space="preserve" text-anchor="middle" x="943.5" y="-75.8" font-family="Arial,sans-serif" font-weight="bold" font-size="14.00">Concrete State: Done</text>
<text xml:space="preserve" text-anchor="start" x="817" y="-39.6" font-family="ui-monospace,Consolas,monospace" font-size="11.00">if (event == Event::reset) { return</text>
<text xml:space="preserve" text-anchor="start" x="817" y="-26.4" font-family="ui-monospace,Consolas,monospace" font-size="11.00">std::make_unique&lt;Idle&gt;(); }</text>
<text xml:space="preserve" text-anchor="start" x="859.91" y="-13.2" font-family="ui-monospace,Consolas,monospace" font-size="11.00">// Done accepts reset.</text>
<polygon fill="none" stroke="#bdb1da" points="806,0 806,-98.4 1081,-98.4 1081,0 806,0"/>
</g>
<!-- A&#45;&gt;D -->
<g id="edge2" class="edge">
<title>A&#45;&gt;D</title>
<path fill="none" stroke="#7355df" stroke-width="1.6" d="M627.93,-110.61C679.92,-100.46 740.55,-88.63 794.63,-78.07"/>
<polygon fill="#7355df" stroke="#7355df" stroke-width="1.6" points="804.15,-76.21 795.2,-82.54 801.21,-77.09 794.39,-78.42 794.34,-78.13 794.28,-77.83 801.1,-76.5 793.47,-73.71 804.15,-76.21"/>
<text xml:space="preserve" text-anchor="start" x="680.31" y="-109.63" font-family="Arial,sans-serif" font-size="11.00" fill="#514675">finish accepted</text>
</g>
<!-- D&#45;&gt;I -->
<g id="edge3" class="edge">
<title>D&#45;&gt;I</title>
<path fill="none" stroke="#7355df" stroke-width="1.6" d="M806.38,-43.49C721.39,-39.92 628,-36 628,-36 628,-36 374,-36 374,-36 374,-36 288.38,-40.15 213.22,-43.8"/>
<polygon fill="#7355df" stroke="#7355df" stroke-width="1.6" points="203.69,-44.27 213.46,-39.29 206.72,-43.82 213.66,-43.48 213.67,-43.78 213.69,-44.08 206.75,-44.42 213.89,-48.28 203.69,-44.27"/>
<text xml:space="preserve" text-anchor="start" x="464.92" y="-43.2" font-family="Arial,sans-serif" font-size="11.00" fill="#514675">reset accepted</text>
</g>
</g>
</svg>
