<?xml version="1.0" encoding="UTF-8" standalone="no"?>
<!DOCTYPE svg PUBLIC "-//W3C//DTD SVG 1.1//EN"
 "http://www.w3.org/Graphics/SVG/1.1/DTD/svg11.dtd">
<!-- Generated by graphviz version 14.1.3 (20260303.0454)
 -->
<!-- Title: G Pages: 1 -->
<svg width="505pt" height="491pt"
 viewBox="0.00 0.00 505.00 491.00" xmlns="http://www.w3.org/2000/svg" xmlns:xlink="http://www.w3.org/1999/xlink">
<g id="graph0" class="graph" transform="scale(1 1) rotate(0) translate(21.6 469.6)">
<title>G</title>
<polygon fill="#fcfbff" stroke="none" points="-21.6,21.6 -21.6,-469.6 483.6,-469.6 483.6,21.6 -21.6,21.6"/>
<!-- client -->
<g id="node1" class="node">
<title>client</title>
<polygon fill="#eee4f7" stroke="none" points="67,-403.8 67,-447 371.85,-447 371.85,-403.8 67,-403.8"/>
<text xml:space="preserve" text-anchor="start" x="167.84" y="-421.6" font-family="Arial" font-weight="bold" font-size="16.00">Sample caller</text>
<polygon fill="#ffffff" stroke="none" points="67,-348.6 67,-403.8 371.85,-403.8 371.85,-348.6 67,-348.6"/>
<text xml:space="preserve" text-anchor="start" x="79" y="-378.8" font-family="Courier,monospace" font-size="13.00">int main() { &#160;&#160;&#160;try{Interval r(3,3);</text>
<text xml:space="preserve" text-anchor="start" x="102.4" y="-363.2" font-family="Courier,monospace" font-size="13.00">// Calls the public interface.</text>
<polygon fill="none" stroke="#b9a3d2" points="66,-347.6 66,-448 396,-448 396,-347.6 66,-347.6"/>
</g>
<!-- type -->
<g id="node2" class="node">
<title>type</title>
<polygon fill="#eee4f7" stroke="none" points="1,-237.8 1,-281 446.27,-281 446.27,-237.8 1,-237.8"/>
<text xml:space="preserve" text-anchor="start" x="133.83" y="-255.6" font-family="Arial" font-weight="bold" font-size="16.00">Interval public interface</text>
<polygon fill="#ffffff" stroke="none" points="1,-167 1,-237.8 446.27,-237.8 446.27,-167 1,-167"/>
<text xml:space="preserve" text-anchor="start" x="13" y="-212.8" font-family="Courier,monospace" font-size="13.00">Interval(int low, int high) : low_(low), high_(high) {</text>
<text xml:space="preserve" text-anchor="start" x="13" y="-197.2" font-family="Courier,monospace" font-size="13.00">int low() const { return low_; }</text>
<text xml:space="preserve" text-anchor="start" x="91.01" y="-181.6" font-family="Courier,monospace" font-size="13.00">int high() const { return high_; }</text>
<polygon fill="none" stroke="#b9a3d2" points="0,-166 0,-282 462,-282 462,-166 0,-166"/>
</g>
<!-- client&#45;&gt;type -->
<g id="edge1" class="edge">
<title>client&#45;&gt;type</title>
<path fill="none" stroke="#7955ac" stroke-width="1.8" stroke-dasharray="5,2" d="M231,-348.03C231,-331.18 231,-311.98 231,-293.83"/>
<polygon fill="#7955ac" stroke="#7955ac" stroke-width="1.8" points="231,-283.98 235.5,-293.98 231.4,-286.79 231.4,-293.98 231,-293.98 230.6,-293.98 230.6,-286.79 226.5,-293.98 231,-283.98"/>
<text xml:space="preserve" text-anchor="middle" x="306.52" y="-310.9" font-family="Arial" font-size="13.00">uses the public operations</text>
</g>
<!-- state -->
<g id="node3" class="node">
<title>state</title>
<polygon fill="#eee4f7" stroke="none" points="67,-56.2 67,-99.4 340.64,-99.4 340.64,-56.2 67,-56.2"/>
<text xml:space="preserve" text-anchor="start" x="116.66" y="-74" font-family="Arial" font-weight="bold" font-size="16.00">Private value members</text>
<polygon fill="#ffffff" stroke="none" points="67,-1 67,-56.2 340.64,-56.2 340.64,-1 67,-1"/>
<text xml:space="preserve" text-anchor="start" x="79" y="-31.2" font-family="Courier,monospace" font-size="13.00">int low_, high_;</text>
<text xml:space="preserve" text-anchor="start" x="79" y="-15.6" font-family="Courier,monospace" font-size="13.00">// Values belong to each object.</text>
<polygon fill="none" stroke="#b9a3d2" points="66,0 66,-100.4 396,-100.4 396,0 66,0"/>
</g>
<!-- type&#45;&gt;state -->
<g id="edge2" class="edge">
<title>type&#45;&gt;state</title>
<path fill="none" stroke="#7955ac" stroke-width="1.8" d="M231,-152.48C231,-134.98 231,-116.6 231,-100.38"/>
<polygon fill="#7955ac" stroke="#7955ac" stroke-width="1.8" points="231,-152.65 235,-158.65 231,-164.65 227,-158.65 231,-152.65"/>
<text xml:space="preserve" text-anchor="middle" x="328.91" y="-129.3" font-family="Arial" font-size="13.00">object contains its value members</text>
</g>
</g>
</svg>
