<?xml version="1.0" encoding="UTF-8" standalone="no"?>
<!DOCTYPE svg PUBLIC "-//W3C//DTD SVG 1.1//EN"
 "http://www.w3.org/Graphics/SVG/1.1/DTD/svg11.dtd">
<!-- Generated by graphviz version 14.1.3 (20260303.0454)
 -->
<!-- Title: G Pages: 1 -->
<svg width="644pt" height="496pt"
 viewBox="0.00 0.00 644.00 496.00" xmlns="http://www.w3.org/2000/svg" xmlns:xlink="http://www.w3.org/1999/xlink">
<g id="graph0" class="graph" transform="scale(1 1) rotate(0) translate(18 477.6)">
<title>G</title>
<polygon fill="#fcfcff" stroke="none" points="-18,18 -18,-477.6 625.5,-477.6 625.5,18 -18,18"/>
<!-- J -->
<g id="node1" class="node">
<title>J</title>
<polygon fill="#ffffff" stroke="none" points="294.5,-181.6 294.5,-278 541.5,-278 541.5,-181.6 294.5,-181.6"/>
<polygon fill="#eee9fb" stroke="none" points="295.5,-229 295.5,-277 540.5,-277 540.5,-229 295.5,-229"/>
<text xml:space="preserve" text-anchor="middle" x="418" y="-255.4" font-family="Arial,sans-serif" font-weight="bold" font-size="14.00">Creator</text>
<text xml:space="preserve" text-anchor="middle" x="418" y="-241.4" font-family="Arial,sans-serif" font-weight="bold" font-size="14.00">ArchiveJob</text>
<text xml:space="preserve" text-anchor="start" x="305.5" y="-208" font-family="ui-monospace,Consolas,monospace" font-size="11.00">auto record = make();</text>
<text xml:space="preserve" text-anchor="start" x="305.5" y="-194.8" font-family="ui-monospace,Consolas,monospace" font-size="11.00">// Workflow requests a product.</text>
<polygon fill="none" stroke="#bdb1da" points="294.5,-181.6 294.5,-278 541.5,-278 541.5,-181.6 294.5,-181.6"/>
</g>
<!-- R -->
<g id="node4" class="node">
<title>R</title>
<polygon fill="#ffffff" stroke="none" points="152,0 152,-96.4 392,-96.4 392,0 152,0"/>
<polygon fill="#eee9fb" stroke="none" points="153,-47.4 153,-95.4 391,-95.4 391,-47.4 153,-47.4"/>
<text xml:space="preserve" text-anchor="middle" x="272" y="-73.8" font-family="Arial,sans-serif" font-weight="bold" font-size="14.00">Product</text>
<text xml:space="preserve" text-anchor="middle" x="272" y="-59.8" font-family="Arial,sans-serif" font-weight="bold" font-size="14.00">Record</text>
<text xml:space="preserve" text-anchor="start" x="163" y="-26.4" font-family="ui-monospace,Consolas,monospace" font-size="11.00">virtual ~Record() = default;</text>
<text xml:space="preserve" text-anchor="start" x="163" y="-13.2" font-family="ui-monospace,Consolas,monospace" font-size="11.00">// Used through one interface.</text>
<polygon fill="none" stroke="#bdb1da" points="152,0 152,-96.4 392,-96.4 392,0 152,0"/>
</g>
<!-- J&#45;&gt;R -->
<g id="edge5" class="edge">
<title>J&#45;&gt;R</title>
<path fill="none" stroke="#7355df" stroke-width="1.6" stroke-dasharray="5,2" d="M384.53,-181.66C365.73,-155.18 346,-127.4 346,-127.4 346,-127.4 336.46,-117.32 324.23,-104.39"/>
<polygon fill="#7355df" stroke="#7355df" stroke-width="1.6" points="317.67,-97.46 327.81,-101.63 319.98,-99.47 324.76,-104.52 324.54,-104.72 324.32,-104.93 319.55,-99.88 321.27,-107.82 317.67,-97.46"/>
<text xml:space="preserve" text-anchor="start" x="381.64" y="-134.6" font-family="Arial,sans-serif" font-size="11.00" fill="#514675">uses during run</text>
</g>
<!-- T -->
<g id="node2" class="node">
<title>T</title>
<polygon fill="#ffffff" stroke="none" points="3.5,-363.2 3.5,-459.6 250.5,-459.6 250.5,-363.2 3.5,-363.2"/>
<polygon fill="#eee9fb" stroke="none" points="4.5,-410.6 4.5,-458.6 249.5,-458.6 249.5,-410.6 4.5,-410.6"/>
<text xml:space="preserve" text-anchor="middle" x="127" y="-437" font-family="Arial,sans-serif" font-weight="bold" font-size="14.00">Concrete creator</text>
<text xml:space="preserve" text-anchor="middle" x="127" y="-423" font-family="Arial,sans-serif" font-weight="bold" font-size="14.00">TextJob</text>
<text xml:space="preserve" text-anchor="start" x="14.5" y="-389.6" font-family="ui-monospace,Consolas,monospace" font-size="11.00">std::make_unique&lt;TextRecord&gt;();</text>
<text xml:space="preserve" text-anchor="start" x="14.5" y="-376.4" font-family="ui-monospace,Consolas,monospace" font-size="11.00">// Select the concrete product.</text>
<polygon fill="none" stroke="#bdb1da" points="3.5,-363.2 3.5,-459.6 250.5,-459.6 250.5,-363.2 3.5,-363.2"/>
</g>
<!-- T&#45;&gt;J -->
<g id="edge1" class="edge">
<title>T&#45;&gt;J</title>
<path fill="none" stroke="#7355df" stroke-width="1.6" d="M203.46,-363.21C242.65,-339.02 290.54,-309.46 331.13,-284.42"/>
<polygon fill="none" stroke="#7355df" stroke-width="1.6" points="332.82,-287.49 339.49,-279.26 329.14,-281.53 332.82,-287.49"/>
<text xml:space="preserve" text-anchor="start" x="314.27" y="-316.2" font-family="Arial,sans-serif" font-size="11.00" fill="#514675">inherits workflow</text>
</g>
<!-- P -->
<g id="node5" class="node">
<title>P</title>
<polygon fill="#ffffff" stroke="none" points="0,-181.6 0,-278 254,-278 254,-181.6 0,-181.6"/>
<polygon fill="#eee9fb" stroke="none" points="1,-229 1,-277 253,-277 253,-229 1,-229"/>
<text xml:space="preserve" text-anchor="middle" x="127" y="-255.4" font-family="Arial,sans-serif" font-weight="bold" font-size="14.00">Concrete product</text>
<text xml:space="preserve" text-anchor="middle" x="127" y="-241.4" font-family="Arial,sans-serif" font-weight="bold" font-size="14.00">TextRecord</text>
<text xml:space="preserve" text-anchor="start" x="11" y="-208" font-family="ui-monospace,Consolas,monospace" font-size="11.00">return &quot;text:&quot; + text;</text>
<text xml:space="preserve" text-anchor="start" x="11" y="-194.8" font-family="ui-monospace,Consolas,monospace" font-size="11.00">// Concrete formatting behavior.</text>
<polygon fill="none" stroke="#bdb1da" points="0,-181.6 0,-278 254,-278 254,-181.6 0,-181.6"/>
</g>
<!-- T&#45;&gt;P -->
<g id="edge4" class="edge">
<title>T&#45;&gt;P</title>
<path fill="none" stroke="#7355df" stroke-width="1.6" stroke-dasharray="5,2" d="M127,-363.21C127,-340.72 127,-313.58 127,-289.74"/>
<polygon fill="#7355df" stroke="#7355df" stroke-width="1.6" points="127,-279.93 131.5,-289.93 127.3,-282.98 127.3,-289.93 127,-289.93 126.7,-289.93 126.7,-282.98 122.5,-289.93 127,-279.93"/>
<text xml:space="preserve" text-anchor="start" x="139.96" y="-316.2" font-family="Arial,sans-serif" font-size="11.00" fill="#514675">creates</text>
</g>
<!-- B -->
<g id="node3" class="node">
<title>B</title>
<polygon fill="#ffffff" stroke="none" points="290.5,-363.2 290.5,-459.6 607.5,-459.6 607.5,-363.2 290.5,-363.2"/>
<polygon fill="#eee9fb" stroke="none" points="291.5,-410.6 291.5,-458.6 606.5,-458.6 606.5,-410.6 291.5,-410.6"/>
<text xml:space="preserve" text-anchor="middle" x="449" y="-437" font-family="Arial,sans-serif" font-weight="bold" font-size="14.00">Concrete creator</text>
<text xml:space="preserve" text-anchor="middle" x="449" y="-423" font-family="Arial,sans-serif" font-weight="bold" font-size="14.00">BracketJob</text>
<text xml:space="preserve" text-anchor="start" x="301.5" y="-389.6" font-family="ui-monospace,Consolas,monospace" font-size="11.00">return std::make_unique&lt;BracketRecord&gt;();</text>
<text xml:space="preserve" text-anchor="start" x="351.01" y="-376.4" font-family="ui-monospace,Consolas,monospace" font-size="11.00">// Select a BracketRecord.</text>
<polygon fill="none" stroke="#bdb1da" points="290.5,-363.2 290.5,-459.6 607.5,-459.6 607.5,-363.2 290.5,-363.2"/>
</g>
<!-- B&#45;&gt;J -->
<g id="edge2" class="edge">
<title>B&#45;&gt;J</title>
<path fill="none" stroke="#7355df" stroke-width="1.6" d="M440.86,-363.21C436.99,-340.82 432.33,-313.83 428.23,-290.07"/>
<polygon fill="none" stroke="#7355df" stroke-width="1.6" points="431.71,-289.63 426.56,-280.37 424.81,-290.82 431.71,-289.63"/>
<text xml:space="preserve" text-anchor="start" x="459.7" y="-316.2" font-family="Arial,sans-serif" font-size="11.00" fill="#514675">inherits workflow</text>
</g>
<!-- P&#45;&gt;R -->
<g id="edge3" class="edge">
<title>P&#45;&gt;R</title>
<path fill="none" stroke="#7355df" stroke-width="1.6" d="M162.33,-181.66C182.18,-155.18 203,-127.4 203,-127.4 203,-127.4 211.56,-117.69 222.66,-105.12"/>
<polygon fill="none" stroke="#7355df" stroke-width="1.6" points="225.07,-107.67 229.07,-97.86 219.82,-103.04 225.07,-107.67"/>
<text xml:space="preserve" text-anchor="start" x="223.51" y="-134.6" font-family="Arial,sans-serif" font-size="11.00" fill="#514675">implements product</text>
</g>
</g>
</svg>
