<?xml version="1.0" encoding="UTF-8" standalone="no"?>
<!DOCTYPE svg PUBLIC "-//W3C//DTD SVG 1.1//EN"
 "http://www.w3.org/Graphics/SVG/1.1/DTD/svg11.dtd">
<!-- Generated by graphviz version 14.1.3 (20260303.0454)
 -->
<!-- Title: G Pages: 1 -->
<svg width="649pt" height="476pt"
 viewBox="0.00 0.00 649.00 476.00" xmlns="http://www.w3.org/2000/svg" xmlns:xlink="http://www.w3.org/1999/xlink">
<g id="graph0" class="graph" transform="scale(1 1) rotate(0) translate(21.6 454)">
<title>G</title>
<polygon fill="#fcfbff" stroke="none" points="-21.6,21.6 -21.6,-454 627.6,-454 627.6,21.6 -21.6,21.6"/>
<!-- caller -->
<g id="node1" class="node">
<title>caller</title>
<polygon fill="#eee4f7" stroke="none" points="121,-388.2 121,-431.4 472.65,-431.4 472.65,-388.2 121,-388.2"/>
<text xml:space="preserve" text-anchor="start" x="218.15" y="-406" font-family="Arial" font-weight="bold" font-size="16.00">Caller supplies input</text>
<polygon fill="#ffffff" stroke="none" points="121,-333 121,-388.2 472.65,-388.2 472.65,-333 121,-333"/>
<text xml:space="preserve" text-anchor="start" x="133" y="-363.2" font-family="Courier,monospace" font-size="13.00">int main() { &#160;&#160;&#160;std::vector&lt;int&gt; v{3,4};</text>
<text xml:space="preserve" text-anchor="start" x="133" y="-347.6" font-family="Courier,monospace" font-size="13.00">// See the full main driver in the source.</text>
<polygon fill="none" stroke="#b9a3d2" points="120,-332 120,-432.4 486,-432.4 486,-332 120,-332"/>
</g>
<!-- operation -->
<g id="node2" class="node">
<title>operation</title>
<polygon fill="#eee4f7" stroke="none" points="1,-222.2 1,-265.4 586.69,-265.4 586.69,-222.2 1,-222.2"/>
<text xml:space="preserve" text-anchor="start" x="213.83" y="-240" font-family="Arial" font-weight="bold" font-size="16.00">Check and transform</text>
<polygon fill="#ffffff" stroke="none" points="1,-167 1,-222.2 586.69,-222.2 586.69,-167 1,-167"/>
<text xml:space="preserve" text-anchor="start" x="13" y="-197.2" font-family="Courier,monospace" font-size="13.00">if (value &lt; &#45;100 || value &gt; 100 || values.size() &gt;= limit) return false;</text>
<text xml:space="preserve" text-anchor="start" x="130.02" y="-181.6" font-family="Courier,monospace" font-size="13.00">// Checks and loops enforce this contract.</text>
<polygon fill="none" stroke="#b9a3d2" points="0,-166 0,-266.4 606,-266.4 606,-166 0,-166"/>
</g>
<!-- caller&#45;&gt;operation -->
<g id="edge1" class="edge">
<title>caller&#45;&gt;operation</title>
<path fill="none" stroke="#7955ac" stroke-width="1.8" d="M303,-332.44C303,-315.48 303,-296.25 303,-278.42"/>
<polygon fill="#7955ac" stroke="#7955ac" stroke-width="1.8" points="303,-268.53 307.5,-278.53 303.4,-271.34 303.4,-278.53 303,-278.53 302.6,-278.53 302.6,-271.34 298.5,-278.53 303,-268.53"/>
<text xml:space="preserve" text-anchor="middle" x="375.62" y="-295.3" font-family="Arial" font-size="13.00">call with the stated inputs</text>
</g>
<!-- result -->
<g id="node3" class="node">
<title>result</title>
<polygon fill="#eee4f7" stroke="none" points="105,-56.2 105,-99.4 487.86,-99.4 487.86,-56.2 105,-56.2"/>
<text xml:space="preserve" text-anchor="start" x="223.53" y="-74" font-family="Arial" font-weight="bold" font-size="16.00">Return to the caller</text>
<polygon fill="#ffffff" stroke="none" points="105,-1 105,-56.2 487.86,-56.2 487.86,-1 105,-1"/>
<text xml:space="preserve" text-anchor="start" x="117" y="-31.2" font-family="Courier,monospace" font-size="13.00">return true;</text>
<text xml:space="preserve" text-anchor="start" x="117" y="-15.6" font-family="Courier,monospace" font-size="13.00">// Result and state must satisfy the contract.</text>
<polygon fill="none" stroke="#b9a3d2" points="104,0 104,-100.4 502,-100.4 502,0 104,0"/>
</g>
<!-- operation&#45;&gt;result -->
<g id="edge2" class="edge">
<title>operation&#45;&gt;result</title>
<path fill="none" stroke="#7955ac" stroke-width="1.8" d="M303,-166.44C303,-149.48 303,-130.25 303,-112.42"/>
<polygon fill="#7955ac" stroke="#7955ac" stroke-width="1.8" points="303,-102.53 307.5,-112.53 303.4,-105.34 303.4,-112.53 303,-112.53 302.6,-112.53 302.6,-105.34 298.5,-112.53 303,-102.53"/>
<text xml:space="preserve" text-anchor="middle" x="420.06" y="-129.3" font-family="Arial" font-size="13.00">return or reported rejection; see full code</text>
</g>
</g>
</svg>
