<?xml version="1.0" encoding="UTF-8" standalone="no"?>
<!DOCTYPE svg PUBLIC "-//W3C//DTD SVG 1.1//EN"
 "http://www.w3.org/Graphics/SVG/1.1/DTD/svg11.dtd">
<!-- Generated by graphviz version 14.1.3 (20260303.0454)
 -->
<!-- Title: G Pages: 1 -->
<svg width="500pt" height="526pt"
 viewBox="0.00 0.00 500.00 526.00" xmlns="http://www.w3.org/2000/svg" xmlns:xlink="http://www.w3.org/1999/xlink">
<g id="graph0" class="graph" transform="scale(1 1) rotate(0) translate(18 508)">
<title>G</title>
<polygon fill="#fcfcff" stroke="none" points="-18,18 -18,-508 482,-508 482,18 -18,18"/>
<!-- input -->
<g id="node1" class="node">
<title>input</title>
<polygon fill="#ffffff" stroke="none" points="45.5,-404.8 45.5,-490 418.5,-490 418.5,-404.8 45.5,-404.8"/>
<polygon fill="#eee9fb" stroke="none" points="46.5,-452.2 46.5,-489 417.5,-489 417.5,-452.2 46.5,-452.2"/>
<text xml:space="preserve" text-anchor="middle" x="232" y="-467.4" font-family="Arial,sans-serif" font-weight="bold" font-size="14.00">Establish the starting state</text>
<text xml:space="preserve" text-anchor="start" x="56.5" y="-431.2" font-family="ui-monospace,Consolas,monospace" font-size="11.00">// Inputs or state for this execution.</text>
<text xml:space="preserve" text-anchor="start" x="56.5" y="-418" font-family="ui-monospace,Consolas,monospace" font-size="11.00">const auto kernel_copy = [](std::size_t length) {</text>
<polygon fill="none" stroke="#bdb1da" points="45.5,-404.8 45.5,-490 418.5,-490 418.5,-404.8 45.5,-404.8"/>
</g>
<!-- mechanism -->
<g id="node2" class="node">
<title>mechanism</title>
<polygon fill="#ffffff" stroke="none" points="45.5,-183.6 45.5,-306.4 418.5,-306.4 418.5,-183.6 45.5,-183.6"/>
<polygon fill="#eee9fb" stroke="none" points="46.5,-257.4 46.5,-305.4 417.5,-305.4 417.5,-257.4 46.5,-257.4"/>
<text xml:space="preserve" text-anchor="middle" x="232" y="-283.8" font-family="Arial,sans-serif" font-weight="bold" font-size="14.00">Model a protected request</text>
<text xml:space="preserve" text-anchor="middle" x="232" y="-269.8" font-family="Arial,sans-serif" font-weight="bold" font-size="14.00">boundary</text>
<text xml:space="preserve" text-anchor="start" x="56.5" y="-236.4" font-family="ui-monospace,Consolas,monospace" font-size="11.00">// Focus: follow the operation below.</text>
<text xml:space="preserve" text-anchor="start" x="56.5" y="-223.2" font-family="ui-monospace,Consolas,monospace" font-size="11.00">const auto kernel_copy = [](std::size_t length) {</text>
<text xml:space="preserve" text-anchor="start" x="56.5" y="-210" font-family="ui-monospace,Consolas,monospace" font-size="11.00">return length &lt;= 8 ? &quot;accepted&quot; : &quot;rejected&quot;;</text>
<text xml:space="preserve" text-anchor="start" x="211.63" y="-196.8" font-family="ui-monospace,Consolas,monospace" font-size="11.00">};</text>
<polygon fill="none" stroke="#bdb1da" points="45.5,-183.6 45.5,-306.4 418.5,-306.4 418.5,-183.6 45.5,-183.6"/>
</g>
<!-- input&#45;&gt;mechanism -->
<g id="edge1" class="edge">
<title>input&#45;&gt;mechanism</title>
<path fill="none" stroke="#7355df" stroke-width="1.6" d="M232,-404.88C232,-379.79 232,-347.12 232,-317.93"/>
<polygon fill="#7355df" stroke="#7355df" stroke-width="1.6" points="232,-308.05 236.5,-318.05 232.3,-311.1 232.3,-318.05 232,-318.05 231.7,-318.05 231.7,-311.1 227.5,-318.05 232,-308.05"/>
<text xml:space="preserve" text-anchor="start" x="255.94" y="-357.8" font-family="Arial,sans-serif" font-size="11.00" fill="#514675">Execute the selected</text>
<text xml:space="preserve" text-anchor="start" x="284.07" y="-344.6" font-family="Arial,sans-serif" font-size="11.00" fill="#514675">operation</text>
</g>
<!-- observe -->
<g id="node3" class="node">
<title>observe</title>
<polygon fill="#ffffff" stroke="none" points="0,0 0,-85.2 464,-85.2 464,0 0,0"/>
<polygon fill="#eee9fb" stroke="none" points="1,-47.4 1,-84.2 463,-84.2 463,-47.4 1,-47.4"/>
<text xml:space="preserve" text-anchor="middle" x="232" y="-62.6" font-family="Arial,sans-serif" font-weight="bold" font-size="14.00">Observe the promised result</text>
<text xml:space="preserve" text-anchor="start" x="11" y="-26.4" font-family="ui-monospace,Consolas,monospace" font-size="11.00">// Check the result; retain the exact output.</text>
<text xml:space="preserve" text-anchor="start" x="11" y="-13.2" font-family="ui-monospace,Consolas,monospace" font-size="11.00">std::cout &lt;&lt; kernel_copy(4) &lt;&lt; &#39; &#39; &lt;&lt; kernel_copy(12) &lt;&lt; &#39;\n&#39;;</text>
<polygon fill="none" stroke="#bdb1da" points="0,0 0,-85.2 464,-85.2 464,0 0,0"/>
</g>
<!-- mechanism&#45;&gt;observe -->
<g id="edge2" class="edge">
<title>mechanism&#45;&gt;observe</title>
<path fill="none" stroke="#7355df" stroke-width="1.6" d="M232,-183.6C232,-156.02 232,-123.63 232,-96.96"/>
<polygon fill="#7355df" stroke="#7355df" stroke-width="1.6" points="232,-87.09 236.5,-97.09 232.3,-90.14 232.3,-97.09 232,-97.09 231.7,-97.09 231.7,-90.14 227.5,-97.09 232,-87.09"/>
<text xml:space="preserve" text-anchor="start" x="254.51" y="-136.6" font-family="Arial,sans-serif" font-size="11.00" fill="#514675">Observe after the</text>
<text xml:space="preserve" text-anchor="start" x="274.07" y="-123.4" font-family="Arial,sans-serif" font-size="11.00" fill="#514675">operation</text>
</g>
</g>
</svg>
