<?xml version="1.0" encoding="UTF-8" standalone="no"?>
<!DOCTYPE svg PUBLIC "-//W3C//DTD SVG 1.1//EN"
 "http://www.w3.org/Graphics/SVG/1.1/DTD/svg11.dtd">
<!-- Generated by graphviz version 14.1.3 (20260303.0454)
 -->
<!-- Title: G Pages: 1 -->
<svg width="817pt" height="476pt"
 viewBox="0.00 0.00 817.00 476.00" xmlns="http://www.w3.org/2000/svg" xmlns:xlink="http://www.w3.org/1999/xlink">
<g id="graph0" class="graph" transform="scale(1 1) rotate(0) translate(21.6 454)">
<title>G</title>
<polygon fill="#fcfbff" stroke="none" points="-21.6,21.6 -21.6,-454 795.6,-454 795.6,21.6 -21.6,21.6"/>
<!-- caller -->
<g id="node1" class="node">
<title>caller</title>
<polygon fill="#eee4f7" stroke="none" points="205,-388.2 205,-431.4 556.65,-431.4 556.65,-388.2 205,-388.2"/>
<text xml:space="preserve" text-anchor="start" x="302.15" y="-406" font-family="Arial" font-weight="bold" font-size="16.00">Caller supplies input</text>
<polygon fill="#ffffff" stroke="none" points="205,-333 205,-388.2 556.65,-388.2 556.65,-333 205,-333"/>
<text xml:space="preserve" text-anchor="start" x="217" y="-363.2" font-family="Courier,monospace" font-size="13.00">int main() { &#160;&#160;&#160;int u,n;</text>
<text xml:space="preserve" text-anchor="start" x="217" y="-347.6" font-family="Courier,monospace" font-size="13.00">// See the full main driver in the source.</text>
<polygon fill="none" stroke="#b9a3d2" points="204,-332 204,-432.4 570,-432.4 570,-332 204,-332"/>
</g>
<!-- operation -->
<g id="node2" class="node">
<title>operation</title>
<polygon fill="#eee4f7" stroke="none" points="1,-222.2 1,-265.4 750.52,-265.4 750.52,-222.2 1,-222.2"/>
<text xml:space="preserve" text-anchor="start" x="295.74" y="-240" font-family="Arial" font-weight="bold" font-size="16.00">Check and transform</text>
<polygon fill="#ffffff" stroke="none" points="1,-167 1,-222.2 750.52,-222.2 750.52,-167 1,-167"/>
<text xml:space="preserve" text-anchor="start" x="13" y="-197.2" font-family="Courier,monospace" font-size="13.00">if (unit &lt; 0 || unit &gt; 100 || count &lt; 0 || count &gt; 100) throw std::invalid_argument(&quot;range&quot;);</text>
<text xml:space="preserve" text-anchor="start" x="211.93" y="-181.6" font-family="Courier,monospace" font-size="13.00">// Checks and loops enforce this contract.</text>
<polygon fill="none" stroke="#b9a3d2" points="0,-166 0,-266.4 774,-266.4 774,-166 0,-166"/>
</g>
<!-- caller&#45;&gt;operation -->
<g id="edge1" class="edge">
<title>caller&#45;&gt;operation</title>
<path fill="none" stroke="#7955ac" stroke-width="1.8" d="M387,-332.44C387,-315.48 387,-296.25 387,-278.42"/>
<polygon fill="#7955ac" stroke="#7955ac" stroke-width="1.8" points="387,-268.53 391.5,-278.53 387.4,-271.34 387.4,-278.53 387,-278.53 386.6,-278.53 386.6,-271.34 382.5,-278.53 387,-268.53"/>
<text xml:space="preserve" text-anchor="middle" x="459.62" y="-295.3" font-family="Arial" font-size="13.00">call with the stated inputs</text>
</g>
<!-- result -->
<g id="node3" class="node">
<title>result</title>
<polygon fill="#eee4f7" stroke="none" points="189,-56.2 189,-99.4 571.86,-99.4 571.86,-56.2 189,-56.2"/>
<text xml:space="preserve" text-anchor="start" x="307.53" y="-74" font-family="Arial" font-weight="bold" font-size="16.00">Return to the caller</text>
<polygon fill="#ffffff" stroke="none" points="189,-1 189,-56.2 571.86,-56.2 571.86,-1 189,-1"/>
<text xml:space="preserve" text-anchor="start" x="201" y="-31.2" font-family="Courier,monospace" font-size="13.00">return unit * count;</text>
<text xml:space="preserve" text-anchor="start" x="201" y="-15.6" font-family="Courier,monospace" font-size="13.00">// Result and state must satisfy the contract.</text>
<polygon fill="none" stroke="#b9a3d2" points="188,0 188,-100.4 586,-100.4 586,0 188,0"/>
</g>
<!-- operation&#45;&gt;result -->
<g id="edge2" class="edge">
<title>operation&#45;&gt;result</title>
<path fill="none" stroke="#7955ac" stroke-width="1.8" d="M387,-166.44C387,-149.48 387,-130.25 387,-112.42"/>
<polygon fill="#7955ac" stroke="#7955ac" stroke-width="1.8" points="387,-102.53 391.5,-112.53 387.4,-105.34 387.4,-112.53 387,-112.53 386.6,-112.53 386.6,-105.34 382.5,-112.53 387,-102.53"/>
<text xml:space="preserve" text-anchor="middle" x="504.06" y="-129.3" font-family="Arial" font-size="13.00">return or reported rejection; see full code</text>
</g>
</g>
</svg>
