<?xml version="1.0" encoding="UTF-8" standalone="no"?>
<!DOCTYPE svg PUBLIC "-//W3C//DTD SVG 1.1//EN"
 "http://www.w3.org/Graphics/SVG/1.1/DTD/svg11.dtd">
<!-- Generated by graphviz version 14.1.3 (20260303.0454)
 -->
<!-- Title: G Pages: 1 -->
<svg width="577pt" height="539pt"
 viewBox="0.00 0.00 577.00 539.00" xmlns="http://www.w3.org/2000/svg" xmlns:xlink="http://www.w3.org/1999/xlink">
<g id="graph0" class="graph" transform="scale(1 1) rotate(0) translate(18 521.2)">
<title>G</title>
<polygon fill="#fcfcff" stroke="none" points="-18,18 -18,-521.2 559,-521.2 559,18 -18,18"/>
<!-- input -->
<g id="node1" class="node">
<title>input</title>
<polygon fill="#ffffff" stroke="none" points="91,-404.8 91,-503.2 450,-503.2 450,-404.8 91,-404.8"/>
<polygon fill="#eee9fb" stroke="none" points="92,-465.4 92,-502.2 449,-502.2 449,-465.4 92,-465.4"/>
<text xml:space="preserve" text-anchor="middle" x="270.5" y="-480.6" font-family="Arial,sans-serif" font-weight="bold" font-size="14.00">Establish the starting state</text>
<text xml:space="preserve" text-anchor="start" x="102" y="-444.4" font-family="ui-monospace,Consolas,monospace" font-size="11.00">// Inputs or state for this execution.</text>
<text xml:space="preserve" text-anchor="start" x="102" y="-431.2" font-family="ui-monospace,Consolas,monospace" font-size="11.00">std::map&lt;unsigned, int&gt; process_a{{0x1000, 7}};</text>
<text xml:space="preserve" text-anchor="start" x="102" y="-418" font-family="ui-monospace,Consolas,monospace" font-size="11.00">std::map&lt;unsigned, int&gt; process_b{{0x1000, 9}};</text>
<polygon fill="none" stroke="#bdb1da" points="91,-404.8 91,-503.2 450,-503.2 450,-404.8 91,-404.8"/>
</g>
<!-- mechanism -->
<g id="node2" class="node">
<title>mechanism</title>
<polygon fill="#ffffff" stroke="none" points="0,-183.6 0,-306.4 541,-306.4 541,-183.6 0,-183.6"/>
<polygon fill="#eee9fb" stroke="none" points="1,-257.4 1,-305.4 540,-305.4 540,-257.4 1,-257.4"/>
<text xml:space="preserve" text-anchor="middle" x="270.5" y="-283.8" font-family="Arial,sans-serif" font-weight="bold" font-size="14.00">Equal virtual addresses need not</text>
<text xml:space="preserve" text-anchor="middle" x="270.5" y="-269.8" font-family="Arial,sans-serif" font-weight="bold" font-size="14.00">share data</text>
<text xml:space="preserve" text-anchor="start" x="11" y="-236.4" font-family="ui-monospace,Consolas,monospace" font-size="11.00">// Focus: follow the operation below.</text>
<text xml:space="preserve" text-anchor="start" x="11" y="-223.2" font-family="ui-monospace,Consolas,monospace" font-size="11.00">process_a.at(0x1000) = 11;</text>
<text xml:space="preserve" text-anchor="start" x="11" y="-210" font-family="ui-monospace,Consolas,monospace" font-size="11.00">std::cout &lt;&lt; process_a.at(0x1000) &lt;&lt; &#39; &#39; &lt;&lt; process_b.at(0x1000) &lt;&lt; &#39;\n&#39;;</text>
<text xml:space="preserve" text-anchor="start" x="139.72" y="-196.8" font-family="ui-monospace,Consolas,monospace" font-size="11.00">assert(process_b.at(0x1000) == 9);</text>
<polygon fill="none" stroke="#bdb1da" points="0,-183.6 0,-306.4 541,-306.4 541,-183.6 0,-183.6"/>
</g>
<!-- input&#45;&gt;mechanism -->
<g id="edge1" class="edge">
<title>input&#45;&gt;mechanism</title>
<path fill="none" stroke="#7355df" stroke-width="1.6" d="M270.5,-404.99C270.5,-379.17 270.5,-346.8 270.5,-318.02"/>
<polygon fill="#7355df" stroke="#7355df" stroke-width="1.6" points="270.5,-308.31 275,-318.31 270.8,-311.36 270.8,-318.31 270.5,-318.31 270.2,-318.31 270.2,-311.36 266,-318.31 270.5,-308.31"/>
<text xml:space="preserve" text-anchor="start" x="294.44" y="-357.8" font-family="Arial,sans-serif" font-size="11.00" fill="#514675">Execute the selected</text>
<text xml:space="preserve" text-anchor="start" x="322.57" y="-344.6" font-family="Arial,sans-serif" font-size="11.00" fill="#514675">operation</text>
</g>
<!-- observe -->
<g id="node3" class="node">
<title>observe</title>
<polygon fill="#ffffff" stroke="none" points="84,0 84,-85.2 457,-85.2 457,0 84,0"/>
<polygon fill="#eee9fb" stroke="none" points="85,-47.4 85,-84.2 456,-84.2 456,-47.4 85,-47.4"/>
<text xml:space="preserve" text-anchor="middle" x="270.5" y="-62.6" font-family="Arial,sans-serif" font-weight="bold" font-size="14.00">Observe the promised result</text>
<text xml:space="preserve" text-anchor="start" x="95" y="-26.4" font-family="ui-monospace,Consolas,monospace" font-size="11.00">// Check the result; retain the exact output.</text>
<text xml:space="preserve" text-anchor="start" x="95" y="-13.2" font-family="ui-monospace,Consolas,monospace" font-size="11.00">// Observe the result shown in the focused block.</text>
<polygon fill="none" stroke="#bdb1da" points="84,0 84,-85.2 457,-85.2 457,0 84,0"/>
</g>
<!-- mechanism&#45;&gt;observe -->
<g id="edge2" class="edge">
<title>mechanism&#45;&gt;observe</title>
<path fill="none" stroke="#7355df" stroke-width="1.6" d="M270.5,-183.6C270.5,-156.02 270.5,-123.63 270.5,-96.96"/>
<polygon fill="#7355df" stroke="#7355df" stroke-width="1.6" points="270.5,-87.09 275,-97.09 270.8,-90.14 270.8,-97.09 270.5,-97.09 270.2,-97.09 270.2,-90.14 266,-97.09 270.5,-87.09"/>
<text xml:space="preserve" text-anchor="start" x="293.01" y="-136.6" font-family="Arial,sans-serif" font-size="11.00" fill="#514675">Observe after the</text>
<text xml:space="preserve" text-anchor="start" x="312.57" y="-123.4" font-family="Arial,sans-serif" font-size="11.00" fill="#514675">operation</text>
</g>
</g>
</svg>
