<?xml version="1.0" encoding="UTF-8" standalone="no"?>
<!DOCTYPE svg PUBLIC "-//W3C//DTD SVG 1.1//EN"
 "http://www.w3.org/Graphics/SVG/1.1/DTD/svg11.dtd">
<!-- Generated by graphviz version 14.1.3 (20260303.0454)
 -->
<!-- Title: G Pages: 1 -->
<svg width="657pt" height="491pt"
 viewBox="0.00 0.00 657.00 491.00" xmlns="http://www.w3.org/2000/svg" xmlns:xlink="http://www.w3.org/1999/xlink">
<g id="graph0" class="graph" transform="scale(1 1) rotate(0) translate(21.6 469.6)">
<title>G</title>
<polygon fill="#fcfbff" stroke="none" points="-21.6,21.6 -21.6,-469.6 635.6,-469.6 635.6,21.6 -21.6,21.6"/>
<!-- caller -->
<g id="node1" class="node">
<title>caller</title>
<polygon fill="#eee4f7" stroke="none" points="1,-403.8 1,-447 586.69,-447 586.69,-403.8 1,-403.8"/>
<text xml:space="preserve" text-anchor="start" x="215.17" y="-421.6" font-family="Arial" font-weight="bold" font-size="16.00">Caller supplies input</text>
<polygon fill="#ffffff" stroke="none" points="1,-348.6 1,-403.8 586.69,-403.8 586.69,-348.6 1,-348.6"/>
<text xml:space="preserve" text-anchor="start" x="13" y="-378.8" font-family="Courier,monospace" font-size="13.00">int main() { &#160;&#160;&#160;std::cout&lt;&lt;std::boolalpha&lt;&lt;acceptanceComplete({})&lt;&lt;&quot;\n&quot;;</text>
<text xml:space="preserve" text-anchor="start" x="130.02" y="-363.2" font-family="Courier,monospace" font-size="13.00">// See the full main driver in the source.</text>
<polygon fill="none" stroke="#b9a3d2" points="0,-347.6 0,-448 614,-448 614,-347.6 0,-347.6"/>
</g>
<!-- operation -->
<g id="node2" class="node">
<title>operation</title>
<polygon fill="#eee4f7" stroke="none" points="5,-237.8 5,-281 590.69,-281 590.69,-237.8 5,-237.8"/>
<text xml:space="preserve" text-anchor="start" x="217.83" y="-255.6" font-family="Arial" font-weight="bold" font-size="16.00">Check and transform</text>
<polygon fill="#ffffff" stroke="none" points="5,-167 5,-237.8 590.69,-237.8 590.69,-167 5,-167"/>
<text xml:space="preserve" text-anchor="start" x="17" y="-212.8" font-family="Courier,monospace" font-size="13.00">if (checks.empty()) return false; // Missing evidence is not acceptance.</text>
<text xml:space="preserve" text-anchor="start" x="17" y="-197.2" font-family="Courier,monospace" font-size="13.00">for (bool passed : checks) if (!passed) return false;</text>
<text xml:space="preserve" text-anchor="start" x="134.02" y="-181.6" font-family="Courier,monospace" font-size="13.00">// Checks and loops enforce this contract.</text>
<polygon fill="none" stroke="#b9a3d2" points="4,-166 4,-282 610,-282 610,-166 4,-166"/>
</g>
<!-- caller&#45;&gt;operation -->
<g id="edge1" class="edge">
<title>caller&#45;&gt;operation</title>
<path fill="none" stroke="#7955ac" stroke-width="1.8" d="M307,-348.03C307,-331.18 307,-311.98 307,-293.83"/>
<polygon fill="#7955ac" stroke="#7955ac" stroke-width="1.8" points="307,-283.98 311.5,-293.98 307.4,-286.79 307.4,-293.98 307,-293.98 306.6,-293.98 306.6,-286.79 302.5,-293.98 307,-283.98"/>
<text xml:space="preserve" text-anchor="middle" x="379.62" y="-310.9" font-family="Arial" font-size="13.00">call with the stated inputs</text>
</g>
<!-- result -->
<g id="node3" class="node">
<title>result</title>
<polygon fill="#eee4f7" stroke="none" points="109,-56.2 109,-99.4 491.86,-99.4 491.86,-56.2 109,-56.2"/>
<text xml:space="preserve" text-anchor="start" x="227.53" y="-74" font-family="Arial" font-weight="bold" font-size="16.00">Return to the caller</text>
<polygon fill="#ffffff" stroke="none" points="109,-1 109,-56.2 491.86,-56.2 491.86,-1 109,-1"/>
<text xml:space="preserve" text-anchor="start" x="121" y="-31.2" font-family="Courier,monospace" font-size="13.00">return true;</text>
<text xml:space="preserve" text-anchor="start" x="121" y="-15.6" font-family="Courier,monospace" font-size="13.00">// Result and state must satisfy the contract.</text>
<polygon fill="none" stroke="#b9a3d2" points="108,0 108,-100.4 506,-100.4 506,0 108,0"/>
</g>
<!-- operation&#45;&gt;result -->
<g id="edge2" class="edge">
<title>operation&#45;&gt;result</title>
<path fill="none" stroke="#7955ac" stroke-width="1.8" d="M307,-166.27C307,-149.04 307,-130.04 307,-112.52"/>
<polygon fill="#7955ac" stroke="#7955ac" stroke-width="1.8" points="307,-102.57 311.5,-112.57 307.4,-105.38 307.4,-112.57 307,-112.57 306.6,-112.57 306.6,-105.38 302.5,-112.57 307,-102.57"/>
<text xml:space="preserve" text-anchor="middle" x="424.06" y="-129.3" font-family="Arial" font-size="13.00">return or reported rejection; see full code</text>
</g>
</g>
</svg>
