<?xml version="1.0" encoding="UTF-8" standalone="no"?>
<!DOCTYPE svg PUBLIC "-//W3C//DTD SVG 1.1//EN"
 "http://www.w3.org/Graphics/SVG/1.1/DTD/svg11.dtd">
<!-- Generated by graphviz version 14.1.3 (20260303.0454)
 -->
<!-- Title: G Pages: 1 -->
<svg width="653pt" height="449pt"
 viewBox="0.00 0.00 653.00 449.00" xmlns="http://www.w3.org/2000/svg" xmlns:xlink="http://www.w3.org/1999/xlink">
<g id="graph0" class="graph" transform="scale(1 1) rotate(0) translate(18 430.8)">
<title>G</title>
<polygon fill="#fcfcff" stroke="none" points="-18,18 -18,-430.8 634.5,-430.8 634.5,18 -18,18"/>
<!-- P -->
<g id="node1" class="node">
<title>P</title>
<polygon fill="#ffffff" stroke="none" points="248.5,-340.8 248.5,-412.8 523.5,-412.8 523.5,-340.8 248.5,-340.8"/>
<polygon fill="#eee9fb" stroke="none" points="249.5,-375 249.5,-411.8 522.5,-411.8 522.5,-375 249.5,-375"/>
<text xml:space="preserve" text-anchor="middle" x="386" y="-390.2" font-family="Arial,sans-serif" font-weight="bold" font-size="14.00">Subsystem: Parser</text>
<text xml:space="preserve" text-anchor="start" x="259.5" y="-354" font-family="ui-monospace,Consolas,monospace" font-size="11.00">const auto v = parser_.parse(text);</text>
<polygon fill="none" stroke="#bdb1da" points="248.5,-340.8 248.5,-412.8 523.5,-412.8 523.5,-340.8 248.5,-340.8"/>
</g>
<!-- V -->
<g id="node2" class="node">
<title>V</title>
<polygon fill="#ffffff" stroke="none" points="187,-183.6 187,-255.6 389,-255.6 389,-183.6 187,-183.6"/>
<polygon fill="#eee9fb" stroke="none" points="188,-217.8 188,-254.6 388,-254.6 388,-217.8 188,-217.8"/>
<text xml:space="preserve" text-anchor="middle" x="288" y="-233" font-family="Arial,sans-serif" font-weight="bold" font-size="14.00">Subsystem: Validator</text>
<text xml:space="preserve" text-anchor="start" x="198" y="-196.8" font-family="ui-monospace,Consolas,monospace" font-size="11.00">validator_.validate(v);</text>
<polygon fill="none" stroke="#bdb1da" points="187,-183.6 187,-255.6 389,-255.6 389,-183.6 187,-183.6"/>
</g>
<!-- P&#45;&gt;V -->
<g id="edge1" class="edge">
<title>P&#45;&gt;V</title>
<path fill="none" stroke="#7355df" stroke-width="1.6" d="M331.48,-340.87C306.78,-325.04 283,-309.8 283,-309.8 283,-309.8 283,-286.6 283,-286.6 283,-286.6 283.64,-278.21 284.45,-267.41"/>
<polygon fill="#7355df" stroke="#7355df" stroke-width="1.6" points="285.21,-257.48 288.94,-267.79 285.27,-260.54 284.75,-267.47 284.45,-267.45 284.15,-267.43 284.68,-260.5 279.96,-267.11 285.21,-257.48"/>
<text xml:space="preserve" text-anchor="start" x="310.1" y="-293.8" font-family="Arial,sans-serif" font-size="11.00" fill="#514675">integer tokens accepted</text>
</g>
<!-- E -->
<g id="node4" class="node">
<title>E</title>
<polygon fill="#ffffff" stroke="none" points="313.5,0 313.5,-85.2 616.5,-85.2 616.5,0 313.5,0"/>
<polygon fill="#eee9fb" stroke="none" points="314.5,-47.4 314.5,-84.2 615.5,-84.2 615.5,-47.4 314.5,-47.4"/>
<text xml:space="preserve" text-anchor="middle" x="465" y="-62.6" font-family="Arial,sans-serif" font-weight="bold" font-size="14.00">Failure annotation</text>
<text xml:space="preserve" text-anchor="start" x="324.5" y="-26.4" font-family="ui-monospace,Consolas,monospace" font-size="11.00">throw std::invalid_argument(&quot;integer&quot;);</text>
<text xml:space="preserve" text-anchor="start" x="327.8" y="-13.2" font-family="ui-monospace,Consolas,monospace" font-size="11.00">// An exception exits run immediately.</text>
<polygon fill="none" stroke="#bdb1da" points="313.5,0 313.5,-85.2 616.5,-85.2 616.5,0 313.5,0"/>
</g>
<!-- P&#45;&gt;E -->
<g id="edge2" class="edge">
<title>P&#45;&gt;E</title>
<path fill="none" stroke="#7355df" stroke-width="1.6" d="M425.17,-340.87C442.92,-325.04 460,-309.8 460,-309.8 460,-309.8 462.54,-174.33 464,-96.67"/>
<polygon fill="#7355df" stroke="#7355df" stroke-width="1.6" points="464.18,-87.14 468.49,-97.23 464.42,-90.2 464.29,-97.15 463.99,-97.14 463.69,-97.14 463.82,-90.19 459.5,-97.06 464.18,-87.14"/>
<text xml:space="preserve" text-anchor="start" x="483.34" y="-215.2" font-family="Arial,sans-serif" font-size="11.00" fill="#514675">syntax rejected</text>
</g>
<!-- S -->
<g id="node3" class="node">
<title>S</title>
<polygon fill="#ffffff" stroke="none" points="0,-6.6 0,-78.6 254,-78.6 254,-6.6 0,-6.6"/>
<polygon fill="#eee9fb" stroke="none" points="1,-40.8 1,-77.6 253,-77.6 253,-40.8 1,-40.8"/>
<text xml:space="preserve" text-anchor="middle" x="127" y="-56" font-family="Arial,sans-serif" font-weight="bold" font-size="14.00">Subsystem: Summarizer</text>
<text xml:space="preserve" text-anchor="start" x="11" y="-19.8" font-family="ui-monospace,Consolas,monospace" font-size="11.00">return summarizer_.summarize(v);</text>
<polygon fill="none" stroke="#bdb1da" points="0,-6.6 0,-78.6 254,-78.6 254,-6.6 0,-6.6"/>
</g>
<!-- V&#45;&gt;S -->
<g id="edge3" class="edge">
<title>V&#45;&gt;S</title>
<path fill="none" stroke="#7355df" stroke-width="1.6" d="M200.14,-183.67C160.32,-167.84 122,-152.6 122,-152.6 122,-152.6 122,-116.2 122,-116.2 122,-116.2 122.83,-104.18 123.81,-89.93"/>
<polygon fill="#7355df" stroke="#7355df" stroke-width="1.6" points="124.48,-80.14 128.29,-90.43 124.57,-83.21 124.1,-90.14 123.8,-90.12 123.5,-90.1 123.97,-83.17 119.31,-89.81 124.48,-80.14"/>
<text xml:space="preserve" text-anchor="start" x="140.25" y="-136.6" font-family="Arial,sans-serif" font-size="11.00" fill="#514675">count and range</text>
<text xml:space="preserve" text-anchor="start" x="157.68" y="-123.4" font-family="Arial,sans-serif" font-size="11.00" fill="#514675">accepted</text>
</g>
<!-- V&#45;&gt;E -->
<g id="edge4" class="edge">
<title>V&#45;&gt;E</title>
<path fill="none" stroke="#7355df" stroke-width="1.6" d="M285.35,-183.67C284.15,-167.84 283,-152.6 283,-152.6 283,-152.6 283,-116.2 283,-116.2 283,-116.2 313.82,-103.9 350.1,-89.43"/>
<polygon fill="#7355df" stroke="#7355df" stroke-width="1.6" points="359.17,-85.82 351.54,-93.7 356.44,-87.23 349.99,-89.8 349.88,-89.52 349.77,-89.24 356.22,-86.67 348.21,-85.34 359.17,-85.82"/>
<text xml:space="preserve" text-anchor="start" x="311.94" y="-130" font-family="Arial,sans-serif" font-size="11.00" fill="#514675">count or range rejected</text>
</g>
</g>
</svg>
