<?xml version="1.0" encoding="UTF-8" standalone="no"?>
<!DOCTYPE svg PUBLIC "-//W3C//DTD SVG 1.1//EN"
 "http://www.w3.org/Graphics/SVG/1.1/DTD/svg11.dtd">
<!-- Generated by graphviz version 14.1.3 (20260303.0454)
 -->
<!-- Title: G Pages: 1 -->
<svg width="676pt" height="548pt"
 viewBox="0.00 0.00 676.00 548.00" xmlns="http://www.w3.org/2000/svg" xmlns:xlink="http://www.w3.org/1999/xlink">
<g id="graph0" class="graph" transform="scale(1 1) rotate(0) translate(18 530.4)">
<title>G</title>
<polygon fill="#fcfcff" stroke="none" points="-18,18 -18,-530.4 657.5,-530.4 657.5,18 -18,18"/>
<!-- F -->
<g id="node1" class="node">
<title>F</title>
<polygon fill="#ffffff" stroke="none" points="204.5,-181.6 204.5,-291.2 396.5,-291.2 396.5,-181.6 204.5,-181.6"/>
<polygon fill="#eee9fb" stroke="none" points="205.5,-242.2 205.5,-290.2 395.5,-290.2 395.5,-242.2 205.5,-242.2"/>
<text xml:space="preserve" text-anchor="middle" x="300.5" y="-268.6" font-family="Arial,sans-serif" font-weight="bold" font-size="14.00">Abstract factory</text>
<text xml:space="preserve" text-anchor="middle" x="300.5" y="-254.6" font-family="Arial,sans-serif" font-weight="bold" font-size="14.00">CodecFactory</text>
<text xml:space="preserve" text-anchor="start" x="215.5" y="-221.2" font-family="ui-monospace,Consolas,monospace" font-size="11.00">encoder() const = 0;</text>
<text xml:space="preserve" text-anchor="start" x="215.5" y="-208" font-family="ui-monospace,Consolas,monospace" font-size="11.00">decoder() const = 0;</text>
<text xml:space="preserve" text-anchor="start" x="215.5" y="-194.8" font-family="ui-monospace,Consolas,monospace" font-size="11.00">// One selected family.</text>
<polygon fill="none" stroke="#bdb1da" points="204.5,-181.6 204.5,-291.2 396.5,-291.2 396.5,-181.6 204.5,-181.6"/>
</g>
<!-- E -->
<g id="node3" class="node">
<title>E</title>
<polygon fill="#ffffff" stroke="none" points="48,0 48,-96.4 281,-96.4 281,0 48,0"/>
<polygon fill="#eee9fb" stroke="none" points="49,-47.4 49,-95.4 280,-95.4 280,-47.4 49,-47.4"/>
<text xml:space="preserve" text-anchor="middle" x="164.5" y="-73.8" font-family="Arial,sans-serif" font-weight="bold" font-size="14.00">Product A</text>
<text xml:space="preserve" text-anchor="middle" x="164.5" y="-59.8" font-family="Arial,sans-serif" font-weight="bold" font-size="14.00">Encoder</text>
<text xml:space="preserve" text-anchor="start" x="59" y="-26.4" font-family="ui-monospace,Consolas,monospace" font-size="11.00">virtual ~Encoder() = default;</text>
<text xml:space="preserve" text-anchor="start" x="72.2" y="-13.2" font-family="ui-monospace,Consolas,monospace" font-size="11.00">// Write one valid digit.</text>
<polygon fill="none" stroke="#bdb1da" points="48,0 48,-96.4 281,-96.4 281,0 48,0"/>
</g>
<!-- F&#45;&gt;E -->
<g id="edge3" class="edge">
<title>F&#45;&gt;E</title>
<path fill="none" stroke="#7355df" stroke-width="1.6" stroke-dasharray="5,2" d="M261.53,-182.04C244.07,-158.14 223.46,-129.92 205.74,-105.66"/>
<polygon fill="#7355df" stroke="#7355df" stroke-width="1.6" points="200,-97.8 209.53,-103.22 202.04,-100.09 206.14,-105.7 205.9,-105.88 205.65,-106.05 201.56,-100.44 202.26,-108.53 200,-97.8"/>
<text xml:space="preserve" text-anchor="start" x="258.57" y="-134.6" font-family="Arial,sans-serif" font-size="11.00" fill="#514675">creates writer</text>
</g>
<!-- D -->
<g id="node4" class="node">
<title>D</title>
<polygon fill="#ffffff" stroke="none" points="321,0 321,-96.4 554,-96.4 554,0 321,0"/>
<polygon fill="#eee9fb" stroke="none" points="322,-47.4 322,-95.4 553,-95.4 553,-47.4 322,-47.4"/>
<text xml:space="preserve" text-anchor="middle" x="437.5" y="-73.8" font-family="Arial,sans-serif" font-weight="bold" font-size="14.00">Product B</text>
<text xml:space="preserve" text-anchor="middle" x="437.5" y="-59.8" font-family="Arial,sans-serif" font-weight="bold" font-size="14.00">Decoder</text>
<text xml:space="preserve" text-anchor="start" x="332" y="-26.4" font-family="ui-monospace,Consolas,monospace" font-size="11.00">virtual ~Decoder() = default;</text>
<text xml:space="preserve" text-anchor="start" x="335.3" y="-13.2" font-family="ui-monospace,Consolas,monospace" font-size="11.00">// Read the matching format.</text>
<polygon fill="none" stroke="#bdb1da" points="321,0 321,-96.4 554,-96.4 554,0 321,0"/>
</g>
<!-- F&#45;&gt;D -->
<g id="edge4" class="edge">
<title>F&#45;&gt;D</title>
<path fill="none" stroke="#7355df" stroke-width="1.6" stroke-dasharray="5,2" d="M339.76,-182.04C357.35,-158.14 378.11,-129.92 395.96,-105.66"/>
<polygon fill="#7355df" stroke="#7355df" stroke-width="1.6" points="401.74,-97.8 399.44,-108.52 400.18,-100.43 396.06,-106.03 395.82,-105.85 395.58,-105.67 399.69,-100.08 392.19,-103.19 401.74,-97.8"/>
<text xml:space="preserve" text-anchor="start" x="396.74" y="-134.6" font-family="Arial,sans-serif" font-size="11.00" fill="#514675">creates reader</text>
</g>
<!-- C -->
<g id="node2" class="node">
<title>C</title>
<polygon fill="#ffffff" stroke="none" points="0,-402.8 0,-499.2 261,-499.2 261,-402.8 0,-402.8"/>
<polygon fill="#eee9fb" stroke="none" points="1,-450.2 1,-498.2 260,-498.2 260,-450.2 1,-450.2"/>
<text xml:space="preserve" text-anchor="middle" x="130.5" y="-476.6" font-family="Arial,sans-serif" font-weight="bold" font-size="14.00">Client</text>
<text xml:space="preserve" text-anchor="middle" x="130.5" y="-462.6" font-family="Arial,sans-serif" font-weight="bold" font-size="14.00">round_trip</text>
<text xml:space="preserve" text-anchor="start" x="11" y="-429.2" font-family="ui-monospace,Consolas,monospace" font-size="11.00">auto encoder = factory.encoder();</text>
<text xml:space="preserve" text-anchor="start" x="11" y="-416" font-family="ui-monospace,Consolas,monospace" font-size="11.00">auto decoder = factory.decoder();</text>
<polygon fill="none" stroke="#bdb1da" points="0,-402.8 0,-499.2 261,-499.2 261,-402.8 0,-402.8"/>
</g>
<!-- C&#45;&gt;F -->
<g id="edge2" class="edge">
<title>C&#45;&gt;F</title>
<path fill="none" stroke="#7355df" stroke-width="1.6" stroke-dasharray="5,2" d="M168.23,-402.82C192.37,-372.63 223.97,-333.11 250.23,-300.27"/>
<polygon fill="#7355df" stroke="#7355df" stroke-width="1.6" points="256.27,-292.72 253.54,-303.34 254.6,-295.29 250.26,-300.71 250.02,-300.53 249.79,-300.34 254.13,-294.91 246.51,-297.72 256.27,-292.72"/>
<text xml:space="preserve" text-anchor="start" x="251.13" y="-336" font-family="Arial,sans-serif" font-size="11.00" fill="#514675">borrows factory</text>
</g>
<!-- P -->
<g id="node5" class="node">
<title>P</title>
<polygon fill="#ffffff" stroke="none" points="301.5,-389.6 301.5,-512.4 639.5,-512.4 639.5,-389.6 301.5,-389.6"/>
<polygon fill="#eee9fb" stroke="none" points="302.5,-463.4 302.5,-511.4 638.5,-511.4 638.5,-463.4 302.5,-463.4"/>
<text xml:space="preserve" text-anchor="middle" x="470.5" y="-489.8" font-family="Arial,sans-serif" font-weight="bold" font-size="14.00">Concrete factory</text>
<text xml:space="preserve" text-anchor="middle" x="470.5" y="-475.8" font-family="Arial,sans-serif" font-weight="bold" font-size="14.00">FramedFactory</text>
<text xml:space="preserve" text-anchor="start" x="312.5" y="-442.4" font-family="ui-monospace,Consolas,monospace" font-size="11.00">return std::make_unique&lt;FramedEncoder&gt;();</text>
<text xml:space="preserve" text-anchor="start" x="312.5" y="-429.2" font-family="ui-monospace,Consolas,monospace" font-size="11.00">// Other factory method returns the decoder.</text>
<text xml:space="preserve" text-anchor="start" x="312.5" y="-416" font-family="ui-monospace,Consolas,monospace" font-size="11.00">return std::make_unique&lt;FramedDecoder&gt;();</text>
<text xml:space="preserve" text-anchor="start" x="338.9" y="-402.8" font-family="ui-monospace,Consolas,monospace" font-size="11.00">// Create FramedEncoder and Decoder.</text>
<polygon fill="none" stroke="#bdb1da" points="301.5,-389.6 301.5,-512.4 639.5,-512.4 639.5,-389.6 301.5,-389.6"/>
</g>
<!-- P&#45;&gt;F -->
<g id="edge1" class="edge">
<title>P&#45;&gt;F</title>
<path fill="none" stroke="#7355df" stroke-width="1.6" d="M422.24,-389.65C399.93,-361.74 373.43,-328.61 350.86,-300.39"/>
<polygon fill="none" stroke="#7355df" stroke-width="1.6" points="353.87,-298.53 344.89,-292.91 348.4,-302.91 353.87,-298.53"/>
<text xml:space="preserve" text-anchor="start" x="416.67" y="-342.6" font-family="Arial,sans-serif" font-size="11.00" fill="#514675">implements family</text>
<text xml:space="preserve" text-anchor="start" x="441.11" y="-329.4" font-family="Arial,sans-serif" font-size="11.00" fill="#514675">creation</text>
</g>
</g>
</svg>
